<?xml version="1.0"?>
<svg xmlns:rdf="http://www.w3.org/1999/02/22-rdf-syntax-ns#" xmlns="http://www.w3.org/2000/svg" xmlns:cc="http://web.resource.org/cc/" xmlns:dc="http://purl.org/dc/elements/1.1/" xmlns:svg="http://www.w3.org/2000/svg" id="svg2" viewBox="0 0 176.15 279.84" version="1.0">
  <g id="layer1" transform="translate(-155.38 -366.59)">
    <path id="path3178" stroke-linejoin="round" d="m280.77 393.88l48.76-25.29-46.45 248.42-23.09 27.42 20.78-250.55z" fill-rule="evenodd" stroke="#000" stroke-width="4" fill="#535d6c"/>
    <path id="path3176" stroke-linejoin="round" d="m157.38 402.7l123.39-8.82 48.76-25.29-134.91 18.37-37.24 15.74z" fill-rule="evenodd" stroke="#000" stroke-width="4" fill="#939dac"/>
    <path id="path3174" stroke-linejoin="round" d="m157.38 402.7l123.39-8.82-20.78 250.55-67.36-14.48-35.25-227.25z" fill-rule="evenodd" stroke="#000" stroke-width="4" fill="#6f7c91"/>
    <path id="path2385" transform="matrix(1 0 0 .95744 .62952 9.2882)" fill="#4d4d4d" d="m266.92 478.87a45.64 53.509 0 1 1 -91.28 0 45.64 53.509 0 1 1 91.28 0z"/>
    <path id="path2389" transform="matrix(.62759 0 0 .56334 87.15 307.73)" fill="#4d4d4d" d="m266.92 478.87a45.64 53.509 0 1 1 -91.28 0 45.64 53.509 0 1 1 91.28 0z"/>
    <path id="path3206" transform="matrix(1 0 0 .95744 .62952 9.2882)" fill="#666" d="m261.2 504.8a45.64 53.509 0 0 1 -61.8 21.03l21.88-46.96z"/>
    <path id="path3161" stroke-linejoin="round" d="m266.92 478.87a45.64 53.509 0 1 1 -91.28 0 45.64 53.509 0 1 1 91.28 0z" stroke-opacity=".96" transform="matrix(.24138 0 0 .23559 168.49 354.96)" stroke="#000" stroke-linecap="round" stroke-width="16.774" fill="#ccc"/>
    <path id="path3210" transform="matrix(.62759 0 0 .56334 87.15 307.73)" fill="#666" d="m258.87 509.22a45.64 53.509 0 0 1 -56.38 18.41l18.79-48.76z"/>
    <path id="path3165" stroke-linejoin="round" d="m266.92 478.87a45.64 53.509 0 1 1 -91.28 0 45.64 53.509 0 1 1 91.28 0z" stroke-opacity=".96" transform="matrix(.15244 0 0 .14093 192.29 510.01)" stroke="#000" stroke-linecap="round" stroke-width="27.291" fill="#ccc"/>
    <path id="path3186" transform="matrix(1.44 0 0 1.6471 -98.302 -296.13)" fill="#fff" d="m226.63 461.75a4.4194 3.0052 0 1 1 -8.84 0 4.4194 3.0052 0 1 1 8.84 0z"/>
    <path id="path3190" transform="matrix(.67688 0 0 .76471 75.689 222.8)" fill="#fff" d="m226.63 461.75a4.4194 3.0052 0 1 1 -8.84 0 4.4194 3.0052 0 1 1 8.84 0z"/>
    <path id="path3208" stroke-linejoin="round" d="m266.92 478.87a45.64 53.509 0 1 1 -91.28 0 45.64 53.509 0 1 1 91.28 0z" transform="matrix(1 0 0 .95744 .62952 9.2882)" stroke="#000" stroke-linecap="round" stroke-width="4.0879" fill="none"/>
    <path id="path3212" stroke-linejoin="round" d="m266.92 478.87a45.64 53.509 0 1 1 -91.28 0 45.64 53.509 0 1 1 91.28 0z" transform="matrix(.62759 0 0 .56334 87.15 307.73)" stroke="#000" stroke-linecap="round" stroke-width="6.7273" fill="none"/>
  </g>
  <metadata>
    <rdf:RDF>
      <cc:Work>
        <dc:format>image/svg+xml</dc:format>
        <dc:type rdf:resource="http://purl.org/dc/dcmitype/StillImage"/>
        <cc:license rdf:resource="http://creativecommons.org/licenses/publicdomain/"/>
        <dc:publisher>
          <cc:Agent rdf:about="http://openclipart.org/">
            <dc:title>Openclipart</dc:title>
          </cc:Agent>
        </dc:publisher>
        <dc:title>Cartoon speaker</dc:title>
        <dc:date>2008-07-10T10:41:29</dc:date>
        <dc:description>cartoon, cartoon, clip art, clipart, colour, colour, electronics, electronics, how i did it, image, loudspeaker, loudspeaker, media, music, music, png, public domain, sound, sound, speaker, speaker, svg, </dc:description>
        <dc:source>http://openclipart.org/detail/17685/cartoon-speaker-by-lemmling</dc:source>
        <dc:creator>
          <cc:Agent>
            <dc:title>lemmling</dc:title>
          </cc:Agent>
        </dc:creator>
        <dc:subject>
          <rdf:Bag>
            <rdf:li>cartoon</rdf:li>
            <rdf:li>clip art</rdf:li>
            <rdf:li>clipart</rdf:li>
            <rdf:li>colour</rdf:li>
            <rdf:li>electronics</rdf:li>
            <rdf:li>how i did it</rdf:li>
            <rdf:li>image</rdf:li>
            <rdf:li>loudspeaker</rdf:li>
            <rdf:li>media</rdf:li>
            <rdf:li>music</rdf:li>
            <rdf:li>png</rdf:li>
            <rdf:li>public domain</rdf:li>
            <rdf:li>sound</rdf:li>
            <rdf:li>speaker</rdf:li>
            <rdf:li>svg</rdf:li>
          </rdf:Bag>
        </dc:subject>
      </cc:Work>
      <cc:License rdf:about="http://creativecommons.org/licenses/publicdomain/">
        <cc:permits rdf:resource="http://creativecommons.org/ns#Reproduction"/>
        <cc:permits rdf:resource="http://creativecommons.org/ns#Distribution"/>
        <cc:permits rdf:resource="http://creativecommons.org/ns#DerivativeWorks"/>
      </cc:License>
    </rdf:RDF>
  </metadata>
</svg>
